<?xml version="1.0" standalone="no"?><!DOCTYPE svg PUBLIC "-//W3C//DTD SVG 1.1//EN" "http://www.w3.org/Graphics/SVG/1.1/DTD/svg11.dtd"><svg t="1621845403320" class="icon" viewBox="0 0 1040 1024" version="1.1" xmlns="http://www.w3.org/2000/svg" p-id="1931" xmlns:xlink="http://www.w3.org/1999/xlink" width="32.5" height="32"><defs><style type="text/css"></style></defs><path d="M1019.409448 287.764959l0.078795 0.035816-143.958716 317.510424-0.004093 0c-7.104815 15.640212-22.458501 26.789133-40.568974 27.970028l0 0.008186-414.579203 27.434839 23.950482 67.927065 451.420273 0c53.009308 0 95.975888 42.647309 95.975888 95.254457 0 52.608172-42.966581 95.253434-95.975888 95.253434-53.002145 0-95.974865-42.645263-95.974865-95.253434L351.901699 823.905776c0 52.608172-42.969651 95.253434-95.973842 95.253434-53.002145 0-95.972818-42.645263-95.972818-95.253434 0-52.607148 42.970674-95.254457 95.972818-95.254457l86.721107 0-184.747701-523.899004L47.986921 204.752314c-26.501584 0-47.986921-21.321608-47.986921-47.629787 0-26.305109 21.485337-47.62774 47.986921-47.62774l143.959739 0c20.939915 0 38.563294 13.397125 45.113477 31.955806l0.177032-0.054235 27.943422 79.232552 710.549032 0c26.500561 0 47.986921 21.320585 47.986921 47.623647C1023.715521 275.221272 1022.123256 281.798061 1019.409448 287.764959zM298.770618 315.883367l88.708368 251.54606 412.353512-27.282367 101.679797-224.263693L298.770618 315.883367z" p-id="1932"></path></svg>