<?xml version="1.0" standalone="no"?><!DOCTYPE svg PUBLIC "-//W3C//DTD SVG 1.1//EN" "http://www.w3.org/Graphics/SVG/1.1/DTD/svg11.dtd"><svg t="1620893583072" class="icon" viewBox="0 0 1024 1024" version="1.1" xmlns="http://www.w3.org/2000/svg" p-id="4754" xmlns:xlink="http://www.w3.org/1999/xlink" width="48" height="48"><defs><style type="text/css"></style></defs><path d="M352.37888 354.34496l-274.75968 39.936-4.66944 0.94208a40.96 40.96 0 0 0-18.0224 68.89472l198.77888 193.82272-46.8992 273.69472-0.53248 4.5056A40.96 40.96 0 0 0 266.24 974.80704l245.76-129.2288 245.76 129.2288 4.13696 1.88416a40.96 40.96 0 0 0 55.296-45.056l-46.94016-273.69472 198.8608-193.82272 3.19488-3.4816a40.96 40.96 0 0 0-25.92768-66.3552l-274.80064-39.936-122.88-248.99584a40.96 40.96 0 0 0-73.44128 0l-122.88 248.99584zM512 215.98208l95.68256 193.90464 2.4576 4.38272a40.96 40.96 0 0 0 28.38528 18.0224l213.97504 31.08864-154.8288 150.9376-3.39968 3.6864a40.96 40.96 0 0 0-8.3968 32.5632l36.57728 213.11488-191.40608-100.63872-4.54656-2.048a40.96 40.96 0 0 0-33.5872 2.048l-191.40608 100.63872 36.61824-213.11488 0.53248-4.99712a40.96 40.96 0 0 0-12.288-31.25248l-154.91072-150.9376 214.016-31.04768a40.96 40.96 0 0 0 30.84288-22.44608L512 215.98208z" p-id="4755"></path></svg>